<svg width="19" height="17" viewBox="0 0 19 17" fill="none" xmlns="http://www.w3.org/2000/svg">
<path fill-rule="evenodd" clip-rule="evenodd" d="M1.27053 7.43464C6.23172 5.27314 9.53996 3.84814 11.1952 3.15965C15.9214 1.19388 16.9035 0.852399 17.5436 0.841124C17.6843 0.838644 17.9991 0.873534 18.203 1.03898C18.3752 1.17869 18.4226 1.36741 18.4452 1.49986C18.4679 1.63232 18.4961 1.93405 18.4737 2.16982C18.2176 4.86081 17.1094 11.3911 16.5456 14.4051C16.307 15.6804 15.8373 16.108 15.3825 16.1499C14.3943 16.2408 13.6438 15.4968 12.6866 14.8693C11.1888 13.8875 10.3426 13.2762 8.88868 12.3181C7.20843 11.2109 8.29766 10.6023 9.25523 9.60776C9.50583 9.34748 13.8602 5.38681 13.9445 5.02752C13.9551 4.98258 13.9648 4.81508 13.8653 4.72664C13.7658 4.63819 13.619 4.66844 13.513 4.69249C13.3628 4.72659 10.9699 6.30814 6.33455 9.43716C5.65536 9.90354 5.04017 10.1308 4.48898 10.1189C3.88133 10.1057 2.71248 9.7753 1.84355 9.49285C0.777774 9.14641 -0.0692822 8.96324 0.00447741 8.37488C0.042896 8.06842 0.464915 7.75501 1.27053 7.43464Z" fill="url(#paint0_linear_3_100303)"/>
<defs>
<linearGradient id="paint0_linear_3_100303" x1="9.24095" y1="0.841003" x2="9.24095" y2="16.0439" gradientUnits="userSpaceOnUse">
<stop stop-color="#2AABEE"/>
<stop offset="1" stop-color="#229ED9"/>
</linearGradient>
</defs>
</svg>
