<svg width="22" height="20" viewBox="0 0 22 20" fill="none" xmlns="http://www.w3.org/2000/svg">
<path fill-rule="evenodd" clip-rule="evenodd" d="M8.53033 0.46967C8.82322 0.762563 8.82322 1.23744 8.53033 1.53033L2.81066 7.25H15C17.1818 7.25 18.8831 8.00525 20.0384 9.19664C21.1852 10.3792 21.75 11.9466 21.75 13.5C21.75 15.0534 21.1852 16.6208 20.0384 17.8034C18.8831 18.9947 17.1818 19.75 15 19.75C14.5858 19.75 14.25 19.4142 14.25 19C14.25 18.5858 14.5858 18.25 15 18.25C16.8182 18.25 18.1169 17.6302 18.9616 16.7591C19.8148 15.8792 20.25 14.6966 20.25 13.5C20.25 12.3034 19.8148 11.1208 18.9616 10.2409C18.1169 9.36975 16.8182 8.75 15 8.75H2.81066L8.53033 14.4697C8.82322 14.7626 8.82322 15.2374 8.53033 15.5303C8.23744 15.8232 7.76256 15.8232 7.46967 15.5303L0.46967 8.53033C0.176777 8.23744 0.176777 7.76256 0.46967 7.46967L7.46967 0.46967C7.76256 0.176777 8.23744 0.176777 8.53033 0.46967Z" fill="#33836E"/>
</svg>
